                    <svg xmlns="http://www.w3.org/2000/svg" xmlns:xlink="http://www.w3.org/1999/xlink" width="44px"
                        height="27px">
                        <defs>
                            <filter id="Filter_0">
                                <feFlood flood-color="rgb(39, 95, 126)" flood-opacity="1" result="floodOut" />
                                <feComposite operator="atop" in="floodOut" in2="SourceGraphic" result="compOut" />
                                <feBlend mode="normal" in="compOut" in2="SourceGraphic" />
                            </filter>

                        </defs>
                        <g filter="url(#Filter_0)">
                            <path fill-rule="evenodd" fill="rgb(0, 0, 0)"
                                d="M38.917,19.458 L40.765,23.815 L36.022,21.787 C33.834,23.060 31.118,23.815 28.175,23.815 C26.607,23.815 25.105,23.601 23.711,23.209 C28.826,21.134 32.317,16.978 32.317,12.190 C32.317,8.823 30.591,5.769 27.789,3.530 C27.917,3.526 28.043,3.525 28.174,3.525 C35.395,3.525 41.250,8.069 41.250,13.671 C41.250,15.822 40.389,17.817 38.917,19.458 ZM22.602,22.179 C20.582,22.998 18.285,23.462 15.846,23.462 C12.562,23.462 9.530,22.621 7.090,21.198 L1.797,23.462 L3.859,18.598 C2.215,16.766 1.250,14.540 1.250,12.139 C1.250,5.885 7.785,0.815 15.846,0.815 C19.954,0.815 23.667,2.131 26.318,4.252 C28.871,6.290 30.445,9.073 30.443,12.140 C30.443,16.503 27.262,20.287 22.602,22.179 ZM9.618,10.086 C8.634,10.086 7.837,10.888 7.837,11.878 C7.837,12.867 8.634,13.671 9.618,13.671 C10.602,13.671 11.399,12.868 11.399,11.878 C11.399,10.888 10.602,10.086 9.618,10.086 ZM15.847,10.086 C14.863,10.086 14.066,10.888 14.066,11.878 C14.066,12.867 14.863,13.671 15.847,13.671 C16.831,13.671 17.629,12.868 17.629,11.878 C17.629,10.888 16.831,10.086 15.847,10.086 ZM22.077,10.088 C21.094,10.088 20.297,10.890 20.297,11.878 C20.297,12.867 21.094,13.669 22.077,13.669 C23.059,13.669 23.857,12.867 23.857,11.878 C23.857,10.890 23.059,10.088 22.077,10.088 Z" />
                        </g>
                    </svg>