                        <svg xmlns="http://www.w3.org/2000/svg" xmlns:xlink="http://www.w3.org/1999/xlink" width="11"
                            height="14" viewBox="0 0 11 14">
                            <defs>
                                <style>
                                    .cls-1 {
                                        fill-rule: evenodd;
                                        filter: url(#filter);
                                    }
                                </style>
                                <filter id="filter" x="108.344" y="375.75" width="11" height="14"
                                    filterUnits="userSpaceOnUse">
                                    <feFlood result="flood" flood-color="#6baacf" />
                                    <feComposite result="composite" operator="in" in2="SourceGraphic" />
                                    <feBlend result="blend" in2="SourceGraphic" />
                                </filter>
                            </defs>
                            <path id="по_контактам" data-name="по контактам" class="cls-1"
                                d="M118.556,384.377c-0.3-.641-2.1-1.2-2.1-1.2-0.961-.331-0.967-0.663-0.967-0.663-1.889,3.647-3.325.01-3.325,0.01-0.131.493-2.075,1.069-2.075,1.069a1.874,1.874,0,0,0-.808.536c-0.841,1.219-.94,3.934-0.94,3.934,0.012,0.621.286,0.685,0.286,0.685a17.348,17.348,0,0,0,4.964.994,14.7,14.7,0,0,0,5.378-.866,0.592,0.592,0,0,0,.339-0.363A9.262,9.262,0,0,0,118.556,384.377Zm-6.866-3.786c0.145,1.172,1.175,2.387,2.111,2.387,1.072,0,2.095-1.277,2.254-2.387a0.535,0.535,0,0,0,.195-0.375s0.231-.8-0.074-0.719a2.416,2.416,0,0,0-.223-2.267,2.161,2.161,0,0,0-1.094-.652,1.016,1.016,0,0,0-.086-0.065,0.521,0.521,0,0,1,.042.053c-0.044-.013-0.09-0.023-0.137-0.034-0.042-.043-0.089-0.087-0.143-0.136a0.935,0.935,0,0,1,.1.127l-0.06-.014a1.2,1.2,0,0,0-.132-0.161s0.022,0.041.051,0.109a0.916,0.916,0,0,1-.428-0.606,0.808,0.808,0,0,0-.285.232,0.716,0.716,0,0,1,.224-0.332,0.807,0.807,0,0,0-.228.187,0.722,0.722,0,0,0-.343.405l-0.06-.03a0.905,0.905,0,0,1,.13-0.2,0.922,0.922,0,0,0-.157.19l-0.125-.06a0.943,0.943,0,0,1,.152-0.207,0.959,0.959,0,0,0-.138.136c0.021-.079.017-0.169-0.235,0.1a2.827,2.827,0,0,0-1.458,1.475,3.5,3.5,0,0,0,.062,1.771c-0.363-.169-0.115.7-0.115,0.7A0.533,0.533,0,0,0,111.69,380.591Zm-0.022-.472v0Zm2.079-4.137a0.7,0.7,0,0,0-.126.282l-0.039-.015A0.617,0.617,0,0,1,113.747,375.982Z"
                                transform="translate(-108.344 -375.75)" />
                        </svg>